<svg height="90" viewBox="0 0 480 480" width="90" xmlns="http://www.w3.org/2000/svg" xmlns:xlink="http://www.w3.org/1999/xlink"><linearGradient id="a"><stop offset="0" stop-color="#fc4a1a"></stop><stop offset="1" stop-color="#f7b733"></stop></linearGradient><linearGradient id="b" gradientUnits="userSpaceOnUse" x1="8" x2="470.968" xlink:href="#a" y1="240" y2="240"></linearGradient><linearGradient id="c" gradientUnits="userSpaceOnUse" x1="8" x2="470.968" xlink:href="#a" y1="208" y2="208"></linearGradient><linearGradient id="d" gradientUnits="userSpaceOnUse" x1="8" x2="470.968" xlink:href="#a" y1="172" y2="172"></linearGradient><linearGradient id="e" gradientUnits="userSpaceOnUse" x1="8" x2="470.968" xlink:href="#a" y1="244" y2="244"></linearGradient><linearGradient id="f" gradientUnits="userSpaceOnUse" x1="8" x2="470.968" xlink:href="#a" y1="192" y2="192"></linearGradient><linearGradient id="g" gradientUnits="userSpaceOnUse" x1="8" x2="470.968" xlink:href="#a" y1="336" y2="336"></linearGradient><path d="m24 272c13.253906 0 24-10.746094 24-24v-8h16v16c0 4.417969 3.582031 8 8 8h14.335938l-26.574219 139.511719c-1.339844 7.023437.527343 14.28125 5.085937 19.789062 4.558594 5.511719 11.335938 8.699219 18.488282 8.699219h12.664062v24c0 4.417969 3.582031 8 8 8h128v8c0 4.417969 3.582031 8 8 8s8-3.582031 8-8v-16c0-4.417969-3.582031-8-8-8h-128v-16h18.761719c11.523437 0 21.417969-8.191406 23.574219-19.511719l19.144531-100.488281h18.519531v8c0 4.417969 3.582031 8 8 8s8-3.582031 8-8v-32c0-4.417969-3.582031-8-8-8s-8 3.582031-8 8v8h-15.472656l6.097656-32h193.375c4.417969 0 8-3.582031 8-8v-24h24c4.417969 0 8-3.582031 8-8v-32c0-4.417969-3.582031-8-8-8h-24v-24c0-4.417969-3.582031-8-8-8h-80v-21.785156l22.855469-38.09375c.75-1.246094 1.144531-2.667969 1.144531-4.121094v-80c0-4.417969-3.582031-8-8-8h-80c-4.417969 0-8 3.582031-8 8v80c.019531.945312.210938 1.875.558594 2.753906.089844.238282.457031 1.148438.585937 1.367188l22.855469 38.09375v21.785156h-176c-4.417969 0-8 3.582031-8 8v16h-16v-8c0-13.253906-10.746094-24-24-24s-24 10.746094-24 24v80c0 13.253906 10.746094 24 24 24zm114.617188 137.496094c-.71875 3.773437-4.015626 6.503906-7.855469 6.503906h-47.425781c-2.382813 0-4.640626-1.0625-6.160157-2.902344-1.519531-1.835937-2.140625-4.253906-1.695312-6.59375l27.144531-142.503906h63.710938zm261.382812-209.496094v16h-16v-16zm-96-184v69.785156l-20.527344 34.214844h-22.945312l-14.398438-24h25.871094c4.417969 0 8-3.582031 8-8s-3.582031-8-8-8h-32v-16h32c4.417969 0 8-3.582031 8-8s-3.582031-8-8-8h-32v-32zm-40 120h16v16h-16zm-32 32v16c0 4.417969 3.582031 8 8 8s8-3.582031 8-8v-16h16v24c0 4.417969 3.582031 8 8 8s8-3.582031 8-8v-24h16v16c0 4.417969 3.582031 8 8 8s8-3.582031 8-8v-16h24v24c0 13.253906-10.746094 24-24 24h-80c-13.253906 0-24-10.746094-24-24v-24zm-152 0h112v24c.027344 22.082031 17.917969 39.972656 40 40h80c22.082031-.027344 39.972656-17.917969 40-40v-24h16v80h-288zm-16 24v32h-16v-32zm-48-24c0-4.417969 3.582031-8 8-8s8 3.582031 8 8v80c0 4.417969-3.582031 8-8 8s-8-3.582031-8-8zm0 0" fill="url(#b)"></path><path d="m472 200h-32c-4.417969 0-8 3.582031-8 8s3.582031 8 8 8h32c4.417969 0 8-3.582031 8-8s-3.582031-8-8-8zm0 0" fill="url(#c)"></path><path d="m440 184c.65625.003906 1.3125-.078125 1.953125-.238281l32-8c4.253906-1.101563 6.828125-5.425781 5.757813-9.691407-1.066407-4.265624-5.375-6.867187-9.648438-5.832031l-32 8c-3.914062.984375-6.484375 4.730469-5.992188 8.738281.492188 4.007813 3.890626 7.019532 7.929688 7.023438zm0 0" fill="url(#d)"></path><path d="m470.054688 255.761719c.636718.160156 1.289062.238281 1.945312.238281 4.039062-.003906 7.4375-3.015625 7.929688-7.023438.492187-4.007812-2.078126-7.753906-5.992188-8.738281l-32-8c-2.78125-.714843-5.734375.113281-7.734375 2.171875-2.003906 2.058594-2.75 5.03125-1.953125 7.789063.792969 2.761719 3.007812 4.882812 5.796875 5.5625zm0 0" fill="url(#e)"></path><path d="m160 200h8c4.417969 0 8-3.582031 8-8s-3.582031-8-8-8h-8c-4.417969 0-8 3.582031-8 8s3.582031 8 8 8zm0 0" fill="url(#f)"></path><path d="m120 200h8c4.417969 0 8-3.582031 8-8s-3.582031-8-8-8h-8c-4.417969 0-8 3.582031-8 8s3.582031 8 8 8zm0 0" fill="url(#f)"></path><path d="m102.328125 399.824219c4.320313.921875 8.574219-1.832031 9.496094-6.152344l24-112c.921875-4.320313-1.832031-8.574219-6.152344-9.496094s-8.574219 1.832031-9.496094 6.152344l-24 112c-.921875 4.320313 1.832031 8.574219 6.152344 9.496094zm0 0" fill="url(#g)"></path></svg>