<svg height="90" viewBox="-40 0 480 480.00003" width="90" xmlns="http://www.w3.org/2000/svg"><path d="m328 472h-256l-16-216h288zm0 0" fill="#4398d1"></path><path d="m71.496094 465.214844.503906 6.785156h256l16-216h-42.71875c-68.382812 104.871094-166.839844 173.230469-229.785156 209.214844zm0 0" fill="#368ec9"></path><path d="m40 224h320v32h-320zm0 0" fill="#63b4eb"></path><path d="m200 8c-110.402344.125-199.875 89.59375-200 200v32c0 4.417969 3.582031 8 8 8h32v-16h-24v-24c0-101.621094 82.382812-184 184-184 101.621094 0 184 82.378906 184 184v24h-24v16h32c4.417969 0 8-3.582031 8-8v-32c-.121094-110.40625-89.59375-199.875-200-200zm0 0" fill="#dedede"></path><path d="m144 8h112v32h-112zm0 0" fill="#e8594a"></path><path d="m48 192h304v32h-304zm0 0" fill="#4398d1"></path><path d="m342.226562 280 1.773438-24h-288l1.777344 24zm0 0" fill="#3087c2"></path><path d="m256 192v152c0 8.835938-7.160156 16-16 16-8.835938 0-16-7.164062-16-16v-56c0-8.835938-7.160156-16-16-16-8.835938 0-16 7.164062-16 16v16c0 8.835938-7.160156 16-16 16-8.835938 0-16-7.164062-16-16s-7.160156-16-16-16c-8.835938 0-16 7.164062-16 16v16c0 8.835938-7.160156 16-16 16-8.835938 0-16-7.164062-16-16v-128zm0 0" fill="#dedede"></path><path d="m120 216h16v16h-16zm0 0" fill="#fff"></path><path d="m120 248h16v16h-16zm0 0" fill="#fff"></path><path d="m256 0h-112c-4.417969 0-8 3.582031-8 8v10.617188c-81.488281 27.113281-136.34375 103.5-136 189.382812v32c0 4.417969 3.582031 8 8 8h24v8c0 4.417969 3.582031 8 8 8h8.578125l15.421875 208.59375c.3125 4.183594 3.804688 7.417969 8 7.40625h256c4.199219.011719 7.691406-3.222656 8-7.40625l15.425781-208.59375h8.574219c4.417969 0 8-3.582031 8-8v-8h24c4.417969 0 8-3.582031 8-8v-32c.347656-85.882812-54.507812-162.269531-136-189.382812v-10.617188c0-4.417969-3.582031-8-8-8zm-104 16h96v16h-96zm192 184v16h-80v-16zm-136 64c-13.253906 0-24 10.746094-24 24v16c0 4.417969-3.582031 8-8 8s-8-3.582031-8-8c0-13.253906-10.742188-24-24-24-13.253906 0-24 10.746094-24 24v16c0 4.417969-3.582031 8-8 8s-8-3.582031-8-8v-120h144v144c0 4.417969-3.582031 8-8 8s-8-3.582031-8-8v-56c0-13.253906-10.742188-24-24-24zm-120-48h-32v-16h32zm-40 16h40v16h-40zm272.570312 232h-241.136718l-14.816406-200h23.382812v56c0 13.253906 10.746094 24 24 24 13.257812 0 24-10.746094 24-24v-16c0-4.417969 3.582031-8 8-8s8 3.582031 8 8c0 13.253906 10.746094 24 24 24 13.257812 0 24-10.746094 24-24v-16c0-4.417969 3.582031-8 8-8s8 3.582031 8 8v56c0 13.253906 10.746094 24 24 24 13.257812 0 24-10.746094 24-24v-80h71.386719zm31.429688-216h-88v-16h88zm32-40v24h-16v-8c0-4.417969-3.582031-8-8-8v-24c0-4.417969-3.582031-8-8-8h-304c-4.417969 0-8 3.582031-8 8v24c-4.417969 0-8 3.582031-8 8v8h-16v-24c-.320312-77.019531 47.667969-145.980469 120-172.441406v4.441406c0 4.417969 3.582031 8 8 8h112c4.417969 0 8-3.582031 8-8v-4.441406c72.335938 26.460937 120.324219 95.421875 120 172.441406zm0 0"></path><path d="m120 216h16v16h-16zm0 0"></path><path d="m120 248h16v16h-16zm0 0"></path></svg>